<svg width="1440" height="819" viewBox="0 0 1440 819" fill="none" xmlns="http://www.w3.org/2000/svg">
<path d="M1440 819V0H1435.77V819H1440ZM1433.65 819V0H1427.3V819H1433.65ZM1425.18 819V0H1423.06V819H1425.18Z" fill="url(#paint0_linear_76_234)"/>
<path d="M1416.71 819V0H1414.59V819H1416.71ZM1408.24 819V0H1399.77V819H1408.24ZM1397.65 819V0H1395.53V819H1397.65Z" fill="url(#paint1_linear_76_234)"/>
<path d="M1393.41 819V0H1389.18V819H1393.41ZM1387.06 819V0H1382.83V819H1387.06ZM1380.71 819V0H1372.24V819H1380.71Z" fill="url(#paint2_linear_76_234)"/>
<path d="M1370.12 819V0H1365.88V819H1370.12ZM1363.77 819V0H1357.41V819H1363.77ZM1355.3 819V0H1353.18V819H1355.3Z" fill="url(#paint3_linear_76_234)"/>
<path d="M1346.82 819V0H1344.71V819H1346.82ZM1342.59 819V0H1338.35V819H1342.59ZM1334.12 819V0H1332V819H1334.12Z" fill="url(#paint4_linear_76_234)"/>
<path d="M1323.53 819V0H1321.41V819H1323.53ZM1315.06 819V0H1306.59V819H1315.06ZM1304.47 819V0H1302.36V819H1304.47Z" fill="url(#paint5_linear_76_234)"/>
<path d="M1300.23 819V0H1298.12V819H1300.23ZM1293.88 819V0H1291.77V819H1293.88ZM1283.3 819V0H1279.06V819H1283.3Z" fill="url(#paint6_linear_76_234)"/>
<path d="M1276.94 819V0H1272.71V819H1276.94ZM1268.47 819V0H1266.35V819H1268.47ZM1264.24 819V0H1262.12V819H1264.24Z" fill="url(#paint7_linear_76_234)"/>
<path d="M1253.65 819V0H1251.53V819H1253.65ZM1247.3 819V0H1245.18V819H1247.3ZM1243.06 819V0H1238.83V819H1243.06Z" fill="url(#paint8_linear_76_234)"/>
<path d="M1230.35 819V0H1228.24V819H1230.35ZM1226.12 819V0H1221.88V819H1226.12ZM1213.42 819V0H1211.3V819H1213.42Z" fill="url(#paint9_linear_76_234)"/>
<path d="M1207.06 819V0H1202.82V819H1207.06ZM1194.36 819V0H1192.24V819H1194.36ZM1188 819V0H1185.89V819H1188Z" fill="url(#paint10_linear_76_234)"/>
<path d="M1183.76 819V0H1181.65V819H1183.76ZM1179.53 819V0H1171.06V819H1179.53ZM1166.83 819V0H1164.71V819H1166.83Z" fill="url(#paint11_linear_76_234)"/>
<path d="M1160.47 819V0H1158.35V819H1160.47ZM1149.88 819V0H1145.65V819H1149.88ZM1141.42 819V0H1139.3V819H1141.42Z" fill="url(#paint12_linear_76_234)"/>
<path d="M1137.18 819V0H1128.71V819H1137.18ZM1124.47 819V0H1122.36V819H1124.47ZM1120.24 819V0H1118.12V819H1120.24Z" fill="url(#paint13_linear_76_234)"/>
<path d="M1113.88 819V0H1111.76V819H1113.88ZM1103.3 819V0H1099.06V819H1103.3ZM1096.94 819V0H1094.83V819H1096.94Z" fill="url(#paint14_linear_76_234)"/>
<path d="M1090.59 819V0H1088.47V819H1090.59ZM1084.24 819V0H1080V819H1084.24ZM1071.53 819V0H1069.42V819H1071.53Z" fill="url(#paint15_linear_76_234)"/>
<path d="M1067.29 819V0H1063.06V819H1067.29ZM1054.59 819V0H1052.47V819H1054.59ZM1050.36 819V0H1048.24V819H1050.36Z" fill="url(#paint16_linear_76_234)"/>
<path d="M1044 819V0H1041.88V819H1044ZM1037.65 819V0H1035.53V819H1037.65ZM1031.3 819V0H1022.83V819H1031.3Z" fill="url(#paint17_linear_76_234)"/>
<path d="M1020.7 819V0H1018.59V819H1020.7ZM1010.12 819V0H1005.88V819H1010.12ZM1003.77 819V0H1001.65V819H1003.77Z" fill="url(#paint18_linear_76_234)"/>
<path d="M997.41 819V0H995.293V819H997.41ZM991.059 819V0H988.942V819H991.059ZM984.707 819V0H976.239V819H984.707Z" fill="url(#paint19_linear_76_234)"/>
<path d="M974.116 819V0H971.999V819H974.116ZM963.53 819V0H959.296V819H963.53ZM957.179 819V0H955.062V819H957.179Z" fill="url(#paint20_linear_76_234)"/>
<path d="M950.822 819V0H942.353V819H950.822ZM938.119 819V0H936.002V819H938.119ZM933.885 819V0H931.768V819H933.885Z" fill="url(#paint21_linear_76_234)"/>
<path d="M927.528 819V0H923.294V819H927.528ZM914.825 819V0H912.708V819H914.825ZM908.473 819V0H906.356V819H908.473Z" fill="url(#paint22_linear_76_234)"/>
<path d="M904.234 819V0H902.116V819H904.234ZM893.648 819V0H889.414V819H893.648ZM887.296 819V0H885.179V819H887.296Z" fill="url(#paint23_linear_76_234)"/>
<path d="M880.939 819V0H872.471V819H880.939ZM868.237 819V0H866.119V819H868.237ZM864.002 819V0H861.885V819H864.002Z" fill="url(#paint24_linear_76_234)"/>
<path d="M857.645 819V0H855.528V819H857.645ZM847.06 819V0H842.825V819H847.06ZM840.708 819V0H838.591V819H840.708Z" fill="url(#paint25_linear_76_234)"/>
<path d="M834.351 819V0H825.882V819H834.351ZM821.648 819V0H819.531V819H821.648ZM817.414 819V0H815.297V819H817.414Z" fill="url(#paint26_linear_76_234)"/>
<path d="M811.057 819V0H808.94V819H811.057ZM800.471 819V0H796.237V819H800.471ZM794.12 819V0H792.002V819H794.12Z" fill="url(#paint27_linear_76_234)"/>
<path d="M787.763 819V0H779.294V819H787.763ZM775.06 819V0H772.943V819H775.06ZM770.826 819V0H768.708V819H770.826Z" fill="url(#paint28_linear_76_234)"/>
<path d="M764.469 819V0H762.351V819H764.469ZM753.883 819V0H749.648V819H753.883ZM747.531 819V0H745.414V819H747.531Z" fill="url(#paint29_linear_76_234)"/>
<path d="M741.174 819V0H739.057V819H741.174ZM730.589 819V0H726.354V819H730.589ZM722.12 819V0H720.003V819H722.12Z" fill="url(#paint30_linear_76_234)"/>
<path d="M717.88 819V0H715.763V819H717.88ZM707.294 819V0H703.06V819H707.294ZM700.943 819V0H698.826V819H700.943Z" fill="url(#paint31_linear_76_234)"/>
<path d="M694.586 819V0H692.469V819H694.586ZM684 819V0H681.883V819H684ZM677.649 819V0H673.414V819H677.649Z" fill="url(#paint32_linear_76_234)"/>
<path d="M671.292 819V0H669.175V819H671.292ZM660.706 819V0H656.472V819H660.706ZM652.237 819V0H650.12V819H652.237Z" fill="url(#paint33_linear_76_234)"/>
<path d="M647.998 819V0H645.88V819H647.998ZM637.412 819V0H633.177V819H637.412ZM631.06 819V0H628.943V819H631.06Z" fill="url(#paint34_linear_76_234)"/>
<path d="M624.703 819V0H622.586V819H624.703ZM614.118 819V0H609.883V819H614.118ZM605.649 819V0H603.532V819H605.649Z" fill="url(#paint35_linear_76_234)"/>
<path d="M601.409 819V0H599.292V819H601.409ZM590.823 819V0H586.589V819H590.823ZM584.472 819V0H582.355V819H584.472Z" fill="url(#paint36_linear_76_234)"/>
<path d="M578.115 819V0H575.998V819H578.115ZM567.529 819V0H563.295V819H567.529ZM559.061 819V0H556.943V819H559.061Z" fill="url(#paint37_linear_76_234)"/>
<path d="M554.821 819V0H552.704V819H554.821ZM544.235 819V0H540.001V819H544.235ZM537.884 819V0H535.766V819H537.884Z" fill="url(#paint38_linear_76_234)"/>
<path d="M531.527 819V0H529.409V819H531.527ZM520.941 819V0H516.707V819H520.941ZM512.472 819V0H510.355V819H512.472Z" fill="url(#paint39_linear_76_234)"/>
<path d="M508.232 819V0H506.115V819H508.232ZM497.647 819V0H493.412V819H497.647ZM491.295 819V0H489.178V819H491.295Z" fill="url(#paint40_linear_76_234)"/>
<path d="M484.938 819V0H482.821V819H484.938ZM474.352 819V0H470.118V819H474.352ZM465.884 819V0H463.767V819H465.884Z" fill="url(#paint41_linear_76_234)"/>
<path d="M461.644 819V0H459.527V819H461.644ZM455.293 819V0H451.058V819H455.293ZM448.941 819V0H446.824V819H448.941Z" fill="url(#paint42_linear_76_234)"/>
<path d="M438.35 819V0H436.233V819H438.35ZM434.115 819V0H429.881V819H434.115ZM421.413 819V0H419.295V819H421.413Z" fill="url(#paint43_linear_76_234)"/>
<path d="M415.056 819V0H412.938V819H415.056ZM408.704 819V0H404.47V819H408.704ZM402.353 819V0H400.236V819H402.353Z" fill="url(#paint44_linear_76_234)"/>
<path d="M391.761 819V0H389.644V819H391.761ZM385.41 819V0H383.293V819H385.41ZM379.058 819V0H370.59V819H379.058Z" fill="url(#paint45_linear_76_234)"/>
<path d="M368.467 819V0H366.35V819H368.467ZM364.233 819V0H355.764V819H364.233ZM351.53 819V0H349.413V819H351.53Z" fill="url(#paint46_linear_76_234)"/>
<path d="M345.173 819V0H336.704V819H345.173ZM332.47 819V0H330.353V819H332.47ZM328.236 819V0H326.119V819H328.236Z" fill="url(#paint47_linear_76_234)"/>
<path d="M321.879 819V0H319.762V819H321.879ZM317.645 819V0H309.176V819H317.645ZM304.942 819V0H302.824V819H304.942Z" fill="url(#paint48_linear_76_234)"/>
<path d="M298.585 819V0H296.468V819H298.585ZM292.233 819V0H290.116V819H292.233ZM287.999 819V0H279.53V819H287.999Z" fill="url(#paint49_linear_76_234)"/>
<path d="M275.291 819V0H273.173V819H275.291ZM268.939 819V0H266.822V819H268.939ZM264.705 819V0H256.236V819H264.705Z" fill="url(#paint50_linear_76_234)"/>
<path d="M251.996 819V0H249.879V819H251.996ZM245.645 819V0H243.528V819H245.645ZM241.411 819V0H237.176V819H241.411Z" fill="url(#paint51_linear_76_234)"/>
<path d="M228.702 819V0H220.233V819H228.702ZM215.999 819V0H213.882V819H215.999ZM209.648 819V0H207.531V819H209.648Z" fill="url(#paint52_linear_76_234)"/>
<path d="M205.408 819V0H203.291V819H205.408ZM194.822 819V0H192.705V819H194.822ZM188.471 819V0H184.236V819H188.471Z" fill="url(#paint53_linear_76_234)"/>
<path d="M182.114 819V0H177.88V819H182.114ZM175.762 819V0H171.528V819H175.762ZM167.294 819V0H163.059V819H167.294Z" fill="url(#paint54_linear_76_234)"/>
<path d="M158.82 819V0H156.702V819H158.82ZM148.234 819V0H146.117V819H148.234ZM144 819V0H139.765V819H144Z" fill="url(#paint55_linear_76_234)"/>
<path d="M135.525 819V0H133.408V819H135.525ZM131.291 819V0H127.057V819H131.291ZM122.822 819V0H120.705V819H122.822Z" fill="url(#paint56_linear_76_234)"/>
<path d="M112.231 819V0H110.114V819H112.231ZM101.645 819V0H99.5282V819H101.645ZM95.2939 819V0H91.0597V819H95.2939Z" fill="url(#paint57_linear_76_234)"/>
<path d="M88.937 819V0H86.8198V819H88.937ZM78.3512 819V0H76.234V819H78.3512ZM74.1169 819V0H69.8826V819H74.1169Z" fill="url(#paint58_linear_76_234)"/>
<path d="M65.6428 819V0H63.5256V819H65.6428ZM55.057 819V0H52.9398V819H55.057ZM48.7056 819V0H44.4713V819H48.7056Z" fill="url(#paint59_linear_76_234)"/>
<path d="M42.3486 819V0H40.2314V819H42.3486ZM38.1144 819V0H33.8799V819H38.1144ZM29.6456 819V0H27.5286V819H29.6456Z" fill="url(#paint60_linear_76_234)"/>
<path d="M19.0544 819V0H16.9373V819H19.0544ZM8.46863 819V0H6.35144V819H8.46863ZM4.23438 819V0H0V819H4.23438Z" fill="url(#paint61_linear_76_234)"/>
<defs>
<linearGradient id="paint0_linear_76_234" x1="1440" y1="331.096" x2="12.4999" y2="331.096" gradientUnits="userSpaceOnUse">
<stop offset="0.0104167" stop-color="#002F2C"/>
<stop offset="0.375" stop-color="#00857D"/>
<stop offset="0.645833" stop-color="#00C7BB"/>
<stop offset="0.817708" stop-color="#00FFF0"/>
<stop offset="1" stop-color="#70FFF6"/>
</linearGradient>
<linearGradient id="paint1_linear_76_234" x1="1440" y1="331.096" x2="12.4999" y2="331.096" gradientUnits="userSpaceOnUse">
<stop offset="0.0104167" stop-color="#002F2C"/>
<stop offset="0.375" stop-color="#00857D"/>
<stop offset="0.645833" stop-color="#00C7BB"/>
<stop offset="0.817708" stop-color="#00FFF0"/>
<stop offset="1" stop-color="#70FFF6"/>
</linearGradient>
<linearGradient id="paint2_linear_76_234" x1="1440" y1="331.096" x2="12.4999" y2="331.096" gradientUnits="userSpaceOnUse">
<stop offset="0.0104167" stop-color="#002F2C"/>
<stop offset="0.375" stop-color="#00857D"/>
<stop offset="0.645833" stop-color="#00C7BB"/>
<stop offset="0.817708" stop-color="#00FFF0"/>
<stop offset="1" stop-color="#70FFF6"/>
</linearGradient>
<linearGradient id="paint3_linear_76_234" x1="1440" y1="331.096" x2="12.4999" y2="331.096" gradientUnits="userSpaceOnUse">
<stop offset="0.0104167" stop-color="#002F2C"/>
<stop offset="0.375" stop-color="#00857D"/>
<stop offset="0.645833" stop-color="#00C7BB"/>
<stop offset="0.817708" stop-color="#00FFF0"/>
<stop offset="1" stop-color="#70FFF6"/>
</linearGradient>
<linearGradient id="paint4_linear_76_234" x1="1440" y1="331.096" x2="12.4999" y2="331.096" gradientUnits="userSpaceOnUse">
<stop offset="0.0104167" stop-color="#002F2C"/>
<stop offset="0.375" stop-color="#00857D"/>
<stop offset="0.645833" stop-color="#00C7BB"/>
<stop offset="0.817708" stop-color="#00FFF0"/>
<stop offset="1" stop-color="#70FFF6"/>
</linearGradient>
<linearGradient id="paint5_linear_76_234" x1="1440" y1="331.096" x2="12.4999" y2="331.096" gradientUnits="userSpaceOnUse">
<stop offset="0.0104167" stop-color="#002F2C"/>
<stop offset="0.375" stop-color="#00857D"/>
<stop offset="0.645833" stop-color="#00C7BB"/>
<stop offset="0.817708" stop-color="#00FFF0"/>
<stop offset="1" stop-color="#70FFF6"/>
</linearGradient>
<linearGradient id="paint6_linear_76_234" x1="1440" y1="331.096" x2="12.4999" y2="331.096" gradientUnits="userSpaceOnUse">
<stop offset="0.0104167" stop-color="#002F2C"/>
<stop offset="0.375" stop-color="#00857D"/>
<stop offset="0.645833" stop-color="#00C7BB"/>
<stop offset="0.817708" stop-color="#00FFF0"/>
<stop offset="1" stop-color="#70FFF6"/>
</linearGradient>
<linearGradient id="paint7_linear_76_234" x1="1440" y1="331.096" x2="12.4999" y2="331.096" gradientUnits="userSpaceOnUse">
<stop offset="0.0104167" stop-color="#002F2C"/>
<stop offset="0.375" stop-color="#00857D"/>
<stop offset="0.645833" stop-color="#00C7BB"/>
<stop offset="0.817708" stop-color="#00FFF0"/>
<stop offset="1" stop-color="#70FFF6"/>
</linearGradient>
<linearGradient id="paint8_linear_76_234" x1="1440" y1="331.096" x2="12.4999" y2="331.096" gradientUnits="userSpaceOnUse">
<stop offset="0.0104167" stop-color="#002F2C"/>
<stop offset="0.375" stop-color="#00857D"/>
<stop offset="0.645833" stop-color="#00C7BB"/>
<stop offset="0.817708" stop-color="#00FFF0"/>
<stop offset="1" stop-color="#70FFF6"/>
</linearGradient>
<linearGradient id="paint9_linear_76_234" x1="1440" y1="331.096" x2="12.4999" y2="331.096" gradientUnits="userSpaceOnUse">
<stop offset="0.0104167" stop-color="#002F2C"/>
<stop offset="0.375" stop-color="#00857D"/>
<stop offset="0.645833" stop-color="#00C7BB"/>
<stop offset="0.817708" stop-color="#00FFF0"/>
<stop offset="1" stop-color="#70FFF6"/>
</linearGradient>
<linearGradient id="paint10_linear_76_234" x1="1440" y1="331.096" x2="12.4999" y2="331.096" gradientUnits="userSpaceOnUse">
<stop offset="0.0104167" stop-color="#002F2C"/>
<stop offset="0.375" stop-color="#00857D"/>
<stop offset="0.645833" stop-color="#00C7BB"/>
<stop offset="0.817708" stop-color="#00FFF0"/>
<stop offset="1" stop-color="#70FFF6"/>
</linearGradient>
<linearGradient id="paint11_linear_76_234" x1="1440" y1="331.096" x2="12.4999" y2="331.096" gradientUnits="userSpaceOnUse">
<stop offset="0.0104167" stop-color="#002F2C"/>
<stop offset="0.375" stop-color="#00857D"/>
<stop offset="0.645833" stop-color="#00C7BB"/>
<stop offset="0.817708" stop-color="#00FFF0"/>
<stop offset="1" stop-color="#70FFF6"/>
</linearGradient>
<linearGradient id="paint12_linear_76_234" x1="1440" y1="331.096" x2="12.4999" y2="331.096" gradientUnits="userSpaceOnUse">
<stop offset="0.0104167" stop-color="#002F2C"/>
<stop offset="0.375" stop-color="#00857D"/>
<stop offset="0.645833" stop-color="#00C7BB"/>
<stop offset="0.817708" stop-color="#00FFF0"/>
<stop offset="1" stop-color="#70FFF6"/>
</linearGradient>
<linearGradient id="paint13_linear_76_234" x1="1440" y1="331.096" x2="12.4999" y2="331.096" gradientUnits="userSpaceOnUse">
<stop offset="0.0104167" stop-color="#002F2C"/>
<stop offset="0.375" stop-color="#00857D"/>
<stop offset="0.645833" stop-color="#00C7BB"/>
<stop offset="0.817708" stop-color="#00FFF0"/>
<stop offset="1" stop-color="#70FFF6"/>
</linearGradient>
<linearGradient id="paint14_linear_76_234" x1="1440" y1="331.096" x2="12.4999" y2="331.096" gradientUnits="userSpaceOnUse">
<stop offset="0.0104167" stop-color="#002F2C"/>
<stop offset="0.375" stop-color="#00857D"/>
<stop offset="0.645833" stop-color="#00C7BB"/>
<stop offset="0.817708" stop-color="#00FFF0"/>
<stop offset="1" stop-color="#70FFF6"/>
</linearGradient>
<linearGradient id="paint15_linear_76_234" x1="1440" y1="331.096" x2="12.4999" y2="331.096" gradientUnits="userSpaceOnUse">
<stop offset="0.0104167" stop-color="#002F2C"/>
<stop offset="0.375" stop-color="#00857D"/>
<stop offset="0.645833" stop-color="#00C7BB"/>
<stop offset="0.817708" stop-color="#00FFF0"/>
<stop offset="1" stop-color="#70FFF6"/>
</linearGradient>
<linearGradient id="paint16_linear_76_234" x1="1440" y1="331.096" x2="12.4999" y2="331.096" gradientUnits="userSpaceOnUse">
<stop offset="0.0104167" stop-color="#002F2C"/>
<stop offset="0.375" stop-color="#00857D"/>
<stop offset="0.645833" stop-color="#00C7BB"/>
<stop offset="0.817708" stop-color="#00FFF0"/>
<stop offset="1" stop-color="#70FFF6"/>
</linearGradient>
<linearGradient id="paint17_linear_76_234" x1="1440" y1="331.096" x2="12.4999" y2="331.096" gradientUnits="userSpaceOnUse">
<stop offset="0.0104167" stop-color="#002F2C"/>
<stop offset="0.375" stop-color="#00857D"/>
<stop offset="0.645833" stop-color="#00C7BB"/>
<stop offset="0.817708" stop-color="#00FFF0"/>
<stop offset="1" stop-color="#70FFF6"/>
</linearGradient>
<linearGradient id="paint18_linear_76_234" x1="1440" y1="331.096" x2="12.4999" y2="331.096" gradientUnits="userSpaceOnUse">
<stop offset="0.0104167" stop-color="#002F2C"/>
<stop offset="0.375" stop-color="#00857D"/>
<stop offset="0.645833" stop-color="#00C7BB"/>
<stop offset="0.817708" stop-color="#00FFF0"/>
<stop offset="1" stop-color="#70FFF6"/>
</linearGradient>
<linearGradient id="paint19_linear_76_234" x1="1440" y1="331.096" x2="12.4999" y2="331.096" gradientUnits="userSpaceOnUse">
<stop offset="0.0104167" stop-color="#002F2C"/>
<stop offset="0.375" stop-color="#00857D"/>
<stop offset="0.645833" stop-color="#00C7BB"/>
<stop offset="0.817708" stop-color="#00FFF0"/>
<stop offset="1" stop-color="#70FFF6"/>
</linearGradient>
<linearGradient id="paint20_linear_76_234" x1="1440" y1="331.096" x2="12.4999" y2="331.096" gradientUnits="userSpaceOnUse">
<stop offset="0.0104167" stop-color="#002F2C"/>
<stop offset="0.375" stop-color="#00857D"/>
<stop offset="0.645833" stop-color="#00C7BB"/>
<stop offset="0.817708" stop-color="#00FFF0"/>
<stop offset="1" stop-color="#70FFF6"/>
</linearGradient>
<linearGradient id="paint21_linear_76_234" x1="1440" y1="331.096" x2="12.4999" y2="331.096" gradientUnits="userSpaceOnUse">
<stop offset="0.0104167" stop-color="#002F2C"/>
<stop offset="0.375" stop-color="#00857D"/>
<stop offset="0.645833" stop-color="#00C7BB"/>
<stop offset="0.817708" stop-color="#00FFF0"/>
<stop offset="1" stop-color="#70FFF6"/>
</linearGradient>
<linearGradient id="paint22_linear_76_234" x1="1440" y1="331.096" x2="12.4999" y2="331.096" gradientUnits="userSpaceOnUse">
<stop offset="0.0104167" stop-color="#002F2C"/>
<stop offset="0.375" stop-color="#00857D"/>
<stop offset="0.645833" stop-color="#00C7BB"/>
<stop offset="0.817708" stop-color="#00FFF0"/>
<stop offset="1" stop-color="#70FFF6"/>
</linearGradient>
<linearGradient id="paint23_linear_76_234" x1="1440" y1="331.096" x2="12.4999" y2="331.096" gradientUnits="userSpaceOnUse">
<stop offset="0.0104167" stop-color="#002F2C"/>
<stop offset="0.375" stop-color="#00857D"/>
<stop offset="0.645833" stop-color="#00C7BB"/>
<stop offset="0.817708" stop-color="#00FFF0"/>
<stop offset="1" stop-color="#70FFF6"/>
</linearGradient>
<linearGradient id="paint24_linear_76_234" x1="1440" y1="331.096" x2="12.4999" y2="331.096" gradientUnits="userSpaceOnUse">
<stop offset="0.0104167" stop-color="#002F2C"/>
<stop offset="0.375" stop-color="#00857D"/>
<stop offset="0.645833" stop-color="#00C7BB"/>
<stop offset="0.817708" stop-color="#00FFF0"/>
<stop offset="1" stop-color="#70FFF6"/>
</linearGradient>
<linearGradient id="paint25_linear_76_234" x1="1440" y1="331.096" x2="12.4999" y2="331.096" gradientUnits="userSpaceOnUse">
<stop offset="0.0104167" stop-color="#002F2C"/>
<stop offset="0.375" stop-color="#00857D"/>
<stop offset="0.645833" stop-color="#00C7BB"/>
<stop offset="0.817708" stop-color="#00FFF0"/>
<stop offset="1" stop-color="#70FFF6"/>
</linearGradient>
<linearGradient id="paint26_linear_76_234" x1="1440" y1="331.096" x2="12.4999" y2="331.096" gradientUnits="userSpaceOnUse">
<stop offset="0.0104167" stop-color="#002F2C"/>
<stop offset="0.375" stop-color="#00857D"/>
<stop offset="0.645833" stop-color="#00C7BB"/>
<stop offset="0.817708" stop-color="#00FFF0"/>
<stop offset="1" stop-color="#70FFF6"/>
</linearGradient>
<linearGradient id="paint27_linear_76_234" x1="1440" y1="331.096" x2="12.4999" y2="331.096" gradientUnits="userSpaceOnUse">
<stop offset="0.0104167" stop-color="#002F2C"/>
<stop offset="0.375" stop-color="#00857D"/>
<stop offset="0.645833" stop-color="#00C7BB"/>
<stop offset="0.817708" stop-color="#00FFF0"/>
<stop offset="1" stop-color="#70FFF6"/>
</linearGradient>
<linearGradient id="paint28_linear_76_234" x1="1440" y1="331.096" x2="12.4999" y2="331.096" gradientUnits="userSpaceOnUse">
<stop offset="0.0104167" stop-color="#002F2C"/>
<stop offset="0.375" stop-color="#00857D"/>
<stop offset="0.645833" stop-color="#00C7BB"/>
<stop offset="0.817708" stop-color="#00FFF0"/>
<stop offset="1" stop-color="#70FFF6"/>
</linearGradient>
<linearGradient id="paint29_linear_76_234" x1="1440" y1="331.096" x2="12.4999" y2="331.096" gradientUnits="userSpaceOnUse">
<stop offset="0.0104167" stop-color="#002F2C"/>
<stop offset="0.375" stop-color="#00857D"/>
<stop offset="0.645833" stop-color="#00C7BB"/>
<stop offset="0.817708" stop-color="#00FFF0"/>
<stop offset="1" stop-color="#70FFF6"/>
</linearGradient>
<linearGradient id="paint30_linear_76_234" x1="1440" y1="331.096" x2="12.4999" y2="331.096" gradientUnits="userSpaceOnUse">
<stop offset="0.0104167" stop-color="#002F2C"/>
<stop offset="0.375" stop-color="#00857D"/>
<stop offset="0.645833" stop-color="#00C7BB"/>
<stop offset="0.817708" stop-color="#00FFF0"/>
<stop offset="1" stop-color="#70FFF6"/>
</linearGradient>
<linearGradient id="paint31_linear_76_234" x1="1440" y1="331.096" x2="12.4999" y2="331.096" gradientUnits="userSpaceOnUse">
<stop offset="0.0104167" stop-color="#002F2C"/>
<stop offset="0.375" stop-color="#00857D"/>
<stop offset="0.645833" stop-color="#00C7BB"/>
<stop offset="0.817708" stop-color="#00FFF0"/>
<stop offset="1" stop-color="#70FFF6"/>
</linearGradient>
<linearGradient id="paint32_linear_76_234" x1="1440" y1="331.096" x2="12.4999" y2="331.096" gradientUnits="userSpaceOnUse">
<stop offset="0.0104167" stop-color="#002F2C"/>
<stop offset="0.375" stop-color="#00857D"/>
<stop offset="0.645833" stop-color="#00C7BB"/>
<stop offset="0.817708" stop-color="#00FFF0"/>
<stop offset="1" stop-color="#70FFF6"/>
</linearGradient>
<linearGradient id="paint33_linear_76_234" x1="1440" y1="331.096" x2="12.4999" y2="331.096" gradientUnits="userSpaceOnUse">
<stop offset="0.0104167" stop-color="#002F2C"/>
<stop offset="0.375" stop-color="#00857D"/>
<stop offset="0.645833" stop-color="#00C7BB"/>
<stop offset="0.817708" stop-color="#00FFF0"/>
<stop offset="1" stop-color="#70FFF6"/>
</linearGradient>
<linearGradient id="paint34_linear_76_234" x1="1440" y1="331.096" x2="12.4999" y2="331.096" gradientUnits="userSpaceOnUse">
<stop offset="0.0104167" stop-color="#002F2C"/>
<stop offset="0.375" stop-color="#00857D"/>
<stop offset="0.645833" stop-color="#00C7BB"/>
<stop offset="0.817708" stop-color="#00FFF0"/>
<stop offset="1" stop-color="#70FFF6"/>
</linearGradient>
<linearGradient id="paint35_linear_76_234" x1="1440" y1="331.096" x2="12.4999" y2="331.096" gradientUnits="userSpaceOnUse">
<stop offset="0.0104167" stop-color="#002F2C"/>
<stop offset="0.375" stop-color="#00857D"/>
<stop offset="0.645833" stop-color="#00C7BB"/>
<stop offset="0.817708" stop-color="#00FFF0"/>
<stop offset="1" stop-color="#70FFF6"/>
</linearGradient>
<linearGradient id="paint36_linear_76_234" x1="1440" y1="331.096" x2="12.4999" y2="331.096" gradientUnits="userSpaceOnUse">
<stop offset="0.0104167" stop-color="#002F2C"/>
<stop offset="0.375" stop-color="#00857D"/>
<stop offset="0.645833" stop-color="#00C7BB"/>
<stop offset="0.817708" stop-color="#00FFF0"/>
<stop offset="1" stop-color="#70FFF6"/>
</linearGradient>
<linearGradient id="paint37_linear_76_234" x1="1440" y1="331.096" x2="12.4999" y2="331.096" gradientUnits="userSpaceOnUse">
<stop offset="0.0104167" stop-color="#002F2C"/>
<stop offset="0.375" stop-color="#00857D"/>
<stop offset="0.645833" stop-color="#00C7BB"/>
<stop offset="0.817708" stop-color="#00FFF0"/>
<stop offset="1" stop-color="#70FFF6"/>
</linearGradient>
<linearGradient id="paint38_linear_76_234" x1="1440" y1="331.096" x2="12.4999" y2="331.096" gradientUnits="userSpaceOnUse">
<stop offset="0.0104167" stop-color="#002F2C"/>
<stop offset="0.375" stop-color="#00857D"/>
<stop offset="0.645833" stop-color="#00C7BB"/>
<stop offset="0.817708" stop-color="#00FFF0"/>
<stop offset="1" stop-color="#70FFF6"/>
</linearGradient>
<linearGradient id="paint39_linear_76_234" x1="1440" y1="331.096" x2="12.4999" y2="331.096" gradientUnits="userSpaceOnUse">
<stop offset="0.0104167" stop-color="#002F2C"/>
<stop offset="0.375" stop-color="#00857D"/>
<stop offset="0.645833" stop-color="#00C7BB"/>
<stop offset="0.817708" stop-color="#00FFF0"/>
<stop offset="1" stop-color="#70FFF6"/>
</linearGradient>
<linearGradient id="paint40_linear_76_234" x1="1440" y1="331.096" x2="12.4999" y2="331.096" gradientUnits="userSpaceOnUse">
<stop offset="0.0104167" stop-color="#002F2C"/>
<stop offset="0.375" stop-color="#00857D"/>
<stop offset="0.645833" stop-color="#00C7BB"/>
<stop offset="0.817708" stop-color="#00FFF0"/>
<stop offset="1" stop-color="#70FFF6"/>
</linearGradient>
<linearGradient id="paint41_linear_76_234" x1="1440" y1="331.096" x2="12.4999" y2="331.096" gradientUnits="userSpaceOnUse">
<stop offset="0.0104167" stop-color="#002F2C"/>
<stop offset="0.375" stop-color="#00857D"/>
<stop offset="0.645833" stop-color="#00C7BB"/>
<stop offset="0.817708" stop-color="#00FFF0"/>
<stop offset="1" stop-color="#70FFF6"/>
</linearGradient>
<linearGradient id="paint42_linear_76_234" x1="1440" y1="331.096" x2="12.4999" y2="331.096" gradientUnits="userSpaceOnUse">
<stop offset="0.0104167" stop-color="#002F2C"/>
<stop offset="0.375" stop-color="#00857D"/>
<stop offset="0.645833" stop-color="#00C7BB"/>
<stop offset="0.817708" stop-color="#00FFF0"/>
<stop offset="1" stop-color="#70FFF6"/>
</linearGradient>
<linearGradient id="paint43_linear_76_234" x1="1440" y1="331.096" x2="12.4999" y2="331.096" gradientUnits="userSpaceOnUse">
<stop offset="0.0104167" stop-color="#002F2C"/>
<stop offset="0.375" stop-color="#00857D"/>
<stop offset="0.645833" stop-color="#00C7BB"/>
<stop offset="0.817708" stop-color="#00FFF0"/>
<stop offset="1" stop-color="#70FFF6"/>
</linearGradient>
<linearGradient id="paint44_linear_76_234" x1="1440" y1="331.096" x2="12.4999" y2="331.096" gradientUnits="userSpaceOnUse">
<stop offset="0.0104167" stop-color="#002F2C"/>
<stop offset="0.375" stop-color="#00857D"/>
<stop offset="0.645833" stop-color="#00C7BB"/>
<stop offset="0.817708" stop-color="#00FFF0"/>
<stop offset="1" stop-color="#70FFF6"/>
</linearGradient>
<linearGradient id="paint45_linear_76_234" x1="1440" y1="331.096" x2="12.4999" y2="331.096" gradientUnits="userSpaceOnUse">
<stop offset="0.0104167" stop-color="#002F2C"/>
<stop offset="0.375" stop-color="#00857D"/>
<stop offset="0.645833" stop-color="#00C7BB"/>
<stop offset="0.817708" stop-color="#00FFF0"/>
<stop offset="1" stop-color="#70FFF6"/>
</linearGradient>
<linearGradient id="paint46_linear_76_234" x1="1440" y1="331.096" x2="12.4999" y2="331.096" gradientUnits="userSpaceOnUse">
<stop offset="0.0104167" stop-color="#002F2C"/>
<stop offset="0.375" stop-color="#00857D"/>
<stop offset="0.645833" stop-color="#00C7BB"/>
<stop offset="0.817708" stop-color="#00FFF0"/>
<stop offset="1" stop-color="#70FFF6"/>
</linearGradient>
<linearGradient id="paint47_linear_76_234" x1="1440" y1="331.096" x2="12.4999" y2="331.096" gradientUnits="userSpaceOnUse">
<stop offset="0.0104167" stop-color="#002F2C"/>
<stop offset="0.375" stop-color="#00857D"/>
<stop offset="0.645833" stop-color="#00C7BB"/>
<stop offset="0.817708" stop-color="#00FFF0"/>
<stop offset="1" stop-color="#70FFF6"/>
</linearGradient>
<linearGradient id="paint48_linear_76_234" x1="1440" y1="331.096" x2="12.4999" y2="331.096" gradientUnits="userSpaceOnUse">
<stop offset="0.0104167" stop-color="#002F2C"/>
<stop offset="0.375" stop-color="#00857D"/>
<stop offset="0.645833" stop-color="#00C7BB"/>
<stop offset="0.817708" stop-color="#00FFF0"/>
<stop offset="1" stop-color="#70FFF6"/>
</linearGradient>
<linearGradient id="paint49_linear_76_234" x1="1440" y1="331.096" x2="12.4999" y2="331.096" gradientUnits="userSpaceOnUse">
<stop offset="0.0104167" stop-color="#002F2C"/>
<stop offset="0.375" stop-color="#00857D"/>
<stop offset="0.645833" stop-color="#00C7BB"/>
<stop offset="0.817708" stop-color="#00FFF0"/>
<stop offset="1" stop-color="#70FFF6"/>
</linearGradient>
<linearGradient id="paint50_linear_76_234" x1="1440" y1="331.096" x2="12.4999" y2="331.096" gradientUnits="userSpaceOnUse">
<stop offset="0.0104167" stop-color="#002F2C"/>
<stop offset="0.375" stop-color="#00857D"/>
<stop offset="0.645833" stop-color="#00C7BB"/>
<stop offset="0.817708" stop-color="#00FFF0"/>
<stop offset="1" stop-color="#70FFF6"/>
</linearGradient>
<linearGradient id="paint51_linear_76_234" x1="1440" y1="331.096" x2="12.4999" y2="331.096" gradientUnits="userSpaceOnUse">
<stop offset="0.0104167" stop-color="#002F2C"/>
<stop offset="0.375" stop-color="#00857D"/>
<stop offset="0.645833" stop-color="#00C7BB"/>
<stop offset="0.817708" stop-color="#00FFF0"/>
<stop offset="1" stop-color="#70FFF6"/>
</linearGradient>
<linearGradient id="paint52_linear_76_234" x1="1440" y1="331.096" x2="12.4999" y2="331.096" gradientUnits="userSpaceOnUse">
<stop offset="0.0104167" stop-color="#002F2C"/>
<stop offset="0.375" stop-color="#00857D"/>
<stop offset="0.645833" stop-color="#00C7BB"/>
<stop offset="0.817708" stop-color="#00FFF0"/>
<stop offset="1" stop-color="#70FFF6"/>
</linearGradient>
<linearGradient id="paint53_linear_76_234" x1="1440" y1="331.096" x2="12.4999" y2="331.096" gradientUnits="userSpaceOnUse">
<stop offset="0.0104167" stop-color="#002F2C"/>
<stop offset="0.375" stop-color="#00857D"/>
<stop offset="0.645833" stop-color="#00C7BB"/>
<stop offset="0.817708" stop-color="#00FFF0"/>
<stop offset="1" stop-color="#70FFF6"/>
</linearGradient>
<linearGradient id="paint54_linear_76_234" x1="1440" y1="331.096" x2="12.4999" y2="331.096" gradientUnits="userSpaceOnUse">
<stop offset="0.0104167" stop-color="#002F2C"/>
<stop offset="0.375" stop-color="#00857D"/>
<stop offset="0.645833" stop-color="#00C7BB"/>
<stop offset="0.817708" stop-color="#00FFF0"/>
<stop offset="1" stop-color="#70FFF6"/>
</linearGradient>
<linearGradient id="paint55_linear_76_234" x1="1440" y1="331.096" x2="12.4999" y2="331.096" gradientUnits="userSpaceOnUse">
<stop offset="0.0104167" stop-color="#002F2C"/>
<stop offset="0.375" stop-color="#00857D"/>
<stop offset="0.645833" stop-color="#00C7BB"/>
<stop offset="0.817708" stop-color="#00FFF0"/>
<stop offset="1" stop-color="#70FFF6"/>
</linearGradient>
<linearGradient id="paint56_linear_76_234" x1="1440" y1="331.096" x2="12.4999" y2="331.096" gradientUnits="userSpaceOnUse">
<stop offset="0.0104167" stop-color="#002F2C"/>
<stop offset="0.375" stop-color="#00857D"/>
<stop offset="0.645833" stop-color="#00C7BB"/>
<stop offset="0.817708" stop-color="#00FFF0"/>
<stop offset="1" stop-color="#70FFF6"/>
</linearGradient>
<linearGradient id="paint57_linear_76_234" x1="1440" y1="331.096" x2="12.4999" y2="331.096" gradientUnits="userSpaceOnUse">
<stop offset="0.0104167" stop-color="#002F2C"/>
<stop offset="0.375" stop-color="#00857D"/>
<stop offset="0.645833" stop-color="#00C7BB"/>
<stop offset="0.817708" stop-color="#00FFF0"/>
<stop offset="1" stop-color="#70FFF6"/>
</linearGradient>
<linearGradient id="paint58_linear_76_234" x1="1440" y1="331.096" x2="12.4999" y2="331.096" gradientUnits="userSpaceOnUse">
<stop offset="0.0104167" stop-color="#002F2C"/>
<stop offset="0.375" stop-color="#00857D"/>
<stop offset="0.645833" stop-color="#00C7BB"/>
<stop offset="0.817708" stop-color="#00FFF0"/>
<stop offset="1" stop-color="#70FFF6"/>
</linearGradient>
<linearGradient id="paint59_linear_76_234" x1="1440" y1="331.096" x2="12.4999" y2="331.096" gradientUnits="userSpaceOnUse">
<stop offset="0.0104167" stop-color="#002F2C"/>
<stop offset="0.375" stop-color="#00857D"/>
<stop offset="0.645833" stop-color="#00C7BB"/>
<stop offset="0.817708" stop-color="#00FFF0"/>
<stop offset="1" stop-color="#70FFF6"/>
</linearGradient>
<linearGradient id="paint60_linear_76_234" x1="1440" y1="331.096" x2="12.4999" y2="331.096" gradientUnits="userSpaceOnUse">
<stop offset="0.0104167" stop-color="#002F2C"/>
<stop offset="0.375" stop-color="#00857D"/>
<stop offset="0.645833" stop-color="#00C7BB"/>
<stop offset="0.817708" stop-color="#00FFF0"/>
<stop offset="1" stop-color="#70FFF6"/>
</linearGradient>
<linearGradient id="paint61_linear_76_234" x1="1440" y1="331.096" x2="12.4999" y2="331.096" gradientUnits="userSpaceOnUse">
<stop offset="0.0104167" stop-color="#002F2C"/>
<stop offset="0.375" stop-color="#00857D"/>
<stop offset="0.645833" stop-color="#00C7BB"/>
<stop offset="0.817708" stop-color="#00FFF0"/>
<stop offset="1" stop-color="#70FFF6"/>
</linearGradient>
</defs>
</svg>
