<svg width="1440" height="400" viewBox="0 0 1440 400" fill="none" xmlns="http://www.w3.org/2000/svg">
<path d="M1440 400V0H1435.77V400H1440ZM1433.65 400V0H1427.3V400H1433.65ZM1425.18 400V0H1423.06V400H1425.18Z" fill="url(#paint0_linear_97_280)"/>
<path d="M1416.71 400V0H1414.59V400H1416.71ZM1408.24 400V0H1399.77V400H1408.24ZM1397.65 400V0H1395.53V400H1397.65Z" fill="url(#paint1_linear_97_280)"/>
<path d="M1393.41 400V0H1389.18V400H1393.41ZM1387.06 400V0H1382.83V400H1387.06ZM1380.71 400V0H1372.24V400H1380.71Z" fill="url(#paint2_linear_97_280)"/>
<path d="M1370.12 400V0H1365.88V400H1370.12ZM1363.77 400V0H1357.41V400H1363.77ZM1355.3 400V0H1353.18V400H1355.3Z" fill="url(#paint3_linear_97_280)"/>
<path d="M1346.82 400V0H1344.71V400H1346.82ZM1342.59 400V0H1338.35V400H1342.59ZM1334.12 400V0H1332V400H1334.12Z" fill="url(#paint4_linear_97_280)"/>
<path d="M1323.53 400V0H1321.41V400H1323.53ZM1315.06 400V0H1306.59V400H1315.06ZM1304.47 400V0H1302.36V400H1304.47Z" fill="url(#paint5_linear_97_280)"/>
<path d="M1300.23 400V0H1298.12V400H1300.23ZM1293.88 400V0H1291.77V400H1293.88ZM1283.3 400V0H1279.06V400H1283.3Z" fill="url(#paint6_linear_97_280)"/>
<path d="M1276.94 400V0H1272.71V400H1276.94ZM1268.47 400V0H1266.35V400H1268.47ZM1264.24 400V0H1262.12V400H1264.24Z" fill="url(#paint7_linear_97_280)"/>
<path d="M1253.65 400V0H1251.53V400H1253.65ZM1247.3 400V0H1245.18V400H1247.3ZM1243.06 400V0H1238.83V400H1243.06Z" fill="url(#paint8_linear_97_280)"/>
<path d="M1230.35 400V0H1228.24V400H1230.35ZM1226.12 400V0H1221.88V400H1226.12ZM1213.42 400V0H1211.3V400H1213.42Z" fill="url(#paint9_linear_97_280)"/>
<path d="M1207.06 400V0H1202.82V400H1207.06ZM1194.36 400V0H1192.24V400H1194.36ZM1188 400V0H1185.89V400H1188Z" fill="url(#paint10_linear_97_280)"/>
<path d="M1183.76 400V0H1181.65V400H1183.76ZM1179.53 400V0H1171.06V400H1179.53ZM1166.83 400V0H1164.71V400H1166.83Z" fill="url(#paint11_linear_97_280)"/>
<path d="M1160.47 400V0H1158.35V400H1160.47ZM1149.88 400V0H1145.65V400H1149.88ZM1141.42 400V0H1139.3V400H1141.42Z" fill="url(#paint12_linear_97_280)"/>
<path d="M1137.18 400V0H1128.71V400H1137.18ZM1124.47 400V0H1122.36V400H1124.47ZM1120.24 400V0H1118.12V400H1120.24Z" fill="url(#paint13_linear_97_280)"/>
<path d="M1113.88 400V0H1111.76V400H1113.88ZM1103.3 400V0H1099.06V400H1103.3ZM1096.94 400V0H1094.83V400H1096.94Z" fill="url(#paint14_linear_97_280)"/>
<path d="M1090.59 400V0H1088.47V400H1090.59ZM1084.24 400V0H1080V400H1084.24ZM1071.53 400V0H1069.42V400H1071.53Z" fill="url(#paint15_linear_97_280)"/>
<path d="M1067.29 400V0H1063.06V400H1067.29ZM1054.59 400V0H1052.47V400H1054.59ZM1050.36 400V0H1048.24V400H1050.36Z" fill="url(#paint16_linear_97_280)"/>
<path d="M1044 400V0H1041.88V400H1044ZM1037.65 400V0H1035.53V400H1037.65ZM1031.3 400V0H1022.83V400H1031.3Z" fill="url(#paint17_linear_97_280)"/>
<path d="M1020.7 400V0H1018.59V400H1020.7ZM1010.12 400V0H1005.88V400H1010.12ZM1003.77 400V0H1001.65V400H1003.77Z" fill="url(#paint18_linear_97_280)"/>
<path d="M997.41 400V0H995.293V400H997.41ZM991.059 400V0H988.942V400H991.059ZM984.707 400V0H976.239V400H984.707Z" fill="url(#paint19_linear_97_280)"/>
<path d="M974.116 400V0H971.999V400H974.116ZM963.53 400V0H959.296V400H963.53ZM957.179 400V0H955.062V400H957.179Z" fill="url(#paint20_linear_97_280)"/>
<path d="M950.822 400V0H942.353V400H950.822ZM938.119 400V0H936.002V400H938.119ZM933.885 400V0H931.768V400H933.885Z" fill="url(#paint21_linear_97_280)"/>
<path d="M927.528 400V0H923.294V400H927.528ZM914.825 400V0H912.708V400H914.825ZM908.473 400V0H906.356V400H908.473Z" fill="url(#paint22_linear_97_280)"/>
<path d="M904.234 400V0H902.116V400H904.234ZM893.648 400V0H889.414V400H893.648ZM887.296 400V0H885.179V400H887.296Z" fill="url(#paint23_linear_97_280)"/>
<path d="M880.939 400V0H872.471V400H880.939ZM868.237 400V0H866.119V400H868.237ZM864.002 400V0H861.885V400H864.002Z" fill="url(#paint24_linear_97_280)"/>
<path d="M857.645 400V0H855.528V400H857.645ZM847.06 400V0H842.825V400H847.06ZM840.708 400V0H838.591V400H840.708Z" fill="url(#paint25_linear_97_280)"/>
<path d="M834.351 400V0H825.882V400H834.351ZM821.648 400V0H819.531V400H821.648ZM817.414 400V0H815.297V400H817.414Z" fill="url(#paint26_linear_97_280)"/>
<path d="M811.057 400V0H808.94V400H811.057ZM800.471 400V0H796.237V400H800.471ZM794.12 400V0H792.002V400H794.12Z" fill="url(#paint27_linear_97_280)"/>
<path d="M787.763 400V0H779.294V400H787.763ZM775.06 400V0H772.943V400H775.06ZM770.825 400V0H768.708V400H770.825Z" fill="url(#paint28_linear_97_280)"/>
<path d="M764.468 400V0H762.351V400H764.468ZM753.883 400V0H749.648V400H753.883ZM747.531 400V0H745.414V400H747.531Z" fill="url(#paint29_linear_97_280)"/>
<path d="M741.174 400V0H739.057V400H741.174ZM730.589 400V0H726.354V400H730.589ZM722.12 400V0H720.003V400H722.12Z" fill="url(#paint30_linear_97_280)"/>
<path d="M717.88 400V0H715.763V400H717.88ZM707.294 400V0H703.06V400H707.294ZM700.943 400V0H698.826V400H700.943Z" fill="url(#paint31_linear_97_280)"/>
<path d="M694.586 400V0H692.469V400H694.586ZM684 400V0H681.883V400H684ZM677.649 400V0H673.414V400H677.649Z" fill="url(#paint32_linear_97_280)"/>
<path d="M671.292 400V0H669.175V400H671.292ZM660.706 400V0H656.472V400H660.706ZM652.237 400V0H650.12V400H652.237Z" fill="url(#paint33_linear_97_280)"/>
<path d="M647.998 400V0H645.88V400H647.998ZM637.412 400V0H633.177V400H637.412ZM631.06 400V0H628.943V400H631.06Z" fill="url(#paint34_linear_97_280)"/>
<path d="M624.703 400V0H622.586V400H624.703ZM614.118 400V0H609.883V400H614.118ZM605.649 400V0H603.532V400H605.649Z" fill="url(#paint35_linear_97_280)"/>
<path d="M601.409 400V0H599.292V400H601.409ZM590.823 400V0H586.589V400H590.823ZM584.472 400V0H582.355V400H584.472Z" fill="url(#paint36_linear_97_280)"/>
<path d="M578.115 400V0H575.998V400H578.115ZM567.529 400V0H563.295V400H567.529ZM559.061 400V0H556.943V400H559.061Z" fill="url(#paint37_linear_97_280)"/>
<path d="M554.821 400V0H552.704V400H554.821ZM544.235 400V0H540.001V400H544.235ZM537.884 400V0H535.766V400H537.884Z" fill="url(#paint38_linear_97_280)"/>
<path d="M531.527 400V0H529.409V400H531.527ZM520.941 400V0H516.707V400H520.941ZM512.472 400V0H510.355V400H512.472Z" fill="url(#paint39_linear_97_280)"/>
<path d="M508.232 400V0H506.115V400H508.232ZM497.647 400V0H493.412V400H497.647ZM491.295 400V0H489.178V400H491.295Z" fill="url(#paint40_linear_97_280)"/>
<path d="M484.938 400V0H482.821V400H484.938ZM474.352 400V0H470.118V400H474.352ZM465.884 400V0H463.767V400H465.884Z" fill="url(#paint41_linear_97_280)"/>
<path d="M461.644 400V0H459.527V400H461.644ZM455.293 400V0H451.058V400H455.293ZM448.941 400V0H446.824V400H448.941Z" fill="url(#paint42_linear_97_280)"/>
<path d="M438.35 400V0H436.233V400H438.35ZM434.116 400V0H429.881V400H434.116ZM421.413 400V0H419.295V400H421.413Z" fill="url(#paint43_linear_97_280)"/>
<path d="M415.056 400V0H412.939V400H415.056ZM408.704 400V0H404.47V400H408.704ZM402.353 400V0H400.236V400H402.353Z" fill="url(#paint44_linear_97_280)"/>
<path d="M391.761 400V0H389.644V400H391.761ZM385.41 400V0H383.293V400H385.41ZM379.059 400V0H370.59V400H379.059Z" fill="url(#paint45_linear_97_280)"/>
<path d="M368.467 400V0H366.35V400H368.467ZM364.233 400V0H355.764V400H364.233ZM351.53 400V0H349.413V400H351.53Z" fill="url(#paint46_linear_97_280)"/>
<path d="M345.173 400V0H336.704V400H345.173ZM332.47 400V0H330.353V400H332.47ZM328.236 400V0H326.119V400H328.236Z" fill="url(#paint47_linear_97_280)"/>
<path d="M321.879 400V0H319.762V400H321.879ZM317.645 400V0H309.176V400H317.645ZM304.942 400V0H302.824V400H304.942Z" fill="url(#paint48_linear_97_280)"/>
<path d="M298.585 400V0H296.467V400H298.585ZM292.233 400V0H290.116V400H292.233ZM287.999 400V0H279.53V400H287.999Z" fill="url(#paint49_linear_97_280)"/>
<path d="M275.291 400V0H273.173V400H275.291ZM268.939 400V0H266.822V400H268.939ZM264.705 400V0H256.236V400H264.705Z" fill="url(#paint50_linear_97_280)"/>
<path d="M251.996 400V0H249.879V400H251.996ZM245.645 400V0H243.528V400H245.645ZM241.411 400V0H237.176V400H241.411Z" fill="url(#paint51_linear_97_280)"/>
<path d="M228.702 400V0H220.233V400H228.702ZM215.999 400V0H213.882V400H215.999ZM209.648 400V0H207.531V400H209.648Z" fill="url(#paint52_linear_97_280)"/>
<path d="M205.408 400V0H203.291V400H205.408ZM194.822 400V0H192.705V400H194.822ZM188.471 400V0H184.236V400H188.471Z" fill="url(#paint53_linear_97_280)"/>
<path d="M182.114 400V0H177.879V400H182.114ZM175.762 400V0H171.528V400H175.762ZM167.294 400V0H163.059V400H167.294Z" fill="url(#paint54_linear_97_280)"/>
<path d="M158.82 400V0H156.702V400H158.82ZM148.234 400V0H146.117V400H148.234ZM144 400V0H139.765V400H144Z" fill="url(#paint55_linear_97_280)"/>
<path d="M135.525 400V0H133.408V400H135.525ZM131.291 400V0H127.057V400H131.291ZM122.822 400V0H120.705V400H122.822Z" fill="url(#paint56_linear_97_280)"/>
<path d="M112.231 400V0H110.114V400H112.231ZM101.645 400V0H99.5282V400H101.645ZM95.294 400V0H91.0597V400H95.294Z" fill="url(#paint57_linear_97_280)"/>
<path d="M88.937 400V0H86.8198V400H88.937ZM78.3513 400V0H76.2341V400H78.3513ZM74.117 400V0H69.8826V400H74.117Z" fill="url(#paint58_linear_97_280)"/>
<path d="M65.6428 400V0H63.5256V400H65.6428ZM55.0571 400V0H52.9399V400H55.0571ZM48.7056 400V0H44.4713V400H48.7056Z" fill="url(#paint59_linear_97_280)"/>
<path d="M42.3486 400V0H40.2314V400H42.3486ZM38.1143 400V0H33.8799V400H38.1143ZM29.6457 400V0H27.5286V400H29.6457Z" fill="url(#paint60_linear_97_280)"/>
<path d="M19.0544 400V0H16.9372V400H19.0544ZM8.46868 400V0H6.35148V400H8.46868ZM4.23442 400V0H1.39599e-05V400H4.23442Z" fill="url(#paint61_linear_97_280)"/>
<defs>
<linearGradient id="paint0_linear_97_280" x1="1440" y1="161.707" x2="12.4999" y2="161.707" gradientUnits="userSpaceOnUse">
<stop offset="0.0104167" stop-color="#002F2C"/>
<stop offset="0.375" stop-color="#00857D"/>
<stop offset="0.645833" stop-color="#00C7BB"/>
<stop offset="0.817708" stop-color="#00FFF0"/>
<stop offset="1" stop-color="#70FFF6"/>
</linearGradient>
<linearGradient id="paint1_linear_97_280" x1="1440" y1="161.707" x2="12.4999" y2="161.707" gradientUnits="userSpaceOnUse">
<stop offset="0.0104167" stop-color="#002F2C"/>
<stop offset="0.375" stop-color="#00857D"/>
<stop offset="0.645833" stop-color="#00C7BB"/>
<stop offset="0.817708" stop-color="#00FFF0"/>
<stop offset="1" stop-color="#70FFF6"/>
</linearGradient>
<linearGradient id="paint2_linear_97_280" x1="1440" y1="161.707" x2="12.4999" y2="161.707" gradientUnits="userSpaceOnUse">
<stop offset="0.0104167" stop-color="#002F2C"/>
<stop offset="0.375" stop-color="#00857D"/>
<stop offset="0.645833" stop-color="#00C7BB"/>
<stop offset="0.817708" stop-color="#00FFF0"/>
<stop offset="1" stop-color="#70FFF6"/>
</linearGradient>
<linearGradient id="paint3_linear_97_280" x1="1440" y1="161.707" x2="12.4999" y2="161.707" gradientUnits="userSpaceOnUse">
<stop offset="0.0104167" stop-color="#002F2C"/>
<stop offset="0.375" stop-color="#00857D"/>
<stop offset="0.645833" stop-color="#00C7BB"/>
<stop offset="0.817708" stop-color="#00FFF0"/>
<stop offset="1" stop-color="#70FFF6"/>
</linearGradient>
<linearGradient id="paint4_linear_97_280" x1="1440" y1="161.707" x2="12.4999" y2="161.707" gradientUnits="userSpaceOnUse">
<stop offset="0.0104167" stop-color="#002F2C"/>
<stop offset="0.375" stop-color="#00857D"/>
<stop offset="0.645833" stop-color="#00C7BB"/>
<stop offset="0.817708" stop-color="#00FFF0"/>
<stop offset="1" stop-color="#70FFF6"/>
</linearGradient>
<linearGradient id="paint5_linear_97_280" x1="1440" y1="161.707" x2="12.4999" y2="161.707" gradientUnits="userSpaceOnUse">
<stop offset="0.0104167" stop-color="#002F2C"/>
<stop offset="0.375" stop-color="#00857D"/>
<stop offset="0.645833" stop-color="#00C7BB"/>
<stop offset="0.817708" stop-color="#00FFF0"/>
<stop offset="1" stop-color="#70FFF6"/>
</linearGradient>
<linearGradient id="paint6_linear_97_280" x1="1440" y1="161.707" x2="12.4999" y2="161.707" gradientUnits="userSpaceOnUse">
<stop offset="0.0104167" stop-color="#002F2C"/>
<stop offset="0.375" stop-color="#00857D"/>
<stop offset="0.645833" stop-color="#00C7BB"/>
<stop offset="0.817708" stop-color="#00FFF0"/>
<stop offset="1" stop-color="#70FFF6"/>
</linearGradient>
<linearGradient id="paint7_linear_97_280" x1="1440" y1="161.707" x2="12.4999" y2="161.707" gradientUnits="userSpaceOnUse">
<stop offset="0.0104167" stop-color="#002F2C"/>
<stop offset="0.375" stop-color="#00857D"/>
<stop offset="0.645833" stop-color="#00C7BB"/>
<stop offset="0.817708" stop-color="#00FFF0"/>
<stop offset="1" stop-color="#70FFF6"/>
</linearGradient>
<linearGradient id="paint8_linear_97_280" x1="1440" y1="161.707" x2="12.4999" y2="161.707" gradientUnits="userSpaceOnUse">
<stop offset="0.0104167" stop-color="#002F2C"/>
<stop offset="0.375" stop-color="#00857D"/>
<stop offset="0.645833" stop-color="#00C7BB"/>
<stop offset="0.817708" stop-color="#00FFF0"/>
<stop offset="1" stop-color="#70FFF6"/>
</linearGradient>
<linearGradient id="paint9_linear_97_280" x1="1440" y1="161.707" x2="12.4999" y2="161.707" gradientUnits="userSpaceOnUse">
<stop offset="0.0104167" stop-color="#002F2C"/>
<stop offset="0.375" stop-color="#00857D"/>
<stop offset="0.645833" stop-color="#00C7BB"/>
<stop offset="0.817708" stop-color="#00FFF0"/>
<stop offset="1" stop-color="#70FFF6"/>
</linearGradient>
<linearGradient id="paint10_linear_97_280" x1="1440" y1="161.707" x2="12.4999" y2="161.707" gradientUnits="userSpaceOnUse">
<stop offset="0.0104167" stop-color="#002F2C"/>
<stop offset="0.375" stop-color="#00857D"/>
<stop offset="0.645833" stop-color="#00C7BB"/>
<stop offset="0.817708" stop-color="#00FFF0"/>
<stop offset="1" stop-color="#70FFF6"/>
</linearGradient>
<linearGradient id="paint11_linear_97_280" x1="1440" y1="161.707" x2="12.4999" y2="161.707" gradientUnits="userSpaceOnUse">
<stop offset="0.0104167" stop-color="#002F2C"/>
<stop offset="0.375" stop-color="#00857D"/>
<stop offset="0.645833" stop-color="#00C7BB"/>
<stop offset="0.817708" stop-color="#00FFF0"/>
<stop offset="1" stop-color="#70FFF6"/>
</linearGradient>
<linearGradient id="paint12_linear_97_280" x1="1440" y1="161.707" x2="12.4999" y2="161.707" gradientUnits="userSpaceOnUse">
<stop offset="0.0104167" stop-color="#002F2C"/>
<stop offset="0.375" stop-color="#00857D"/>
<stop offset="0.645833" stop-color="#00C7BB"/>
<stop offset="0.817708" stop-color="#00FFF0"/>
<stop offset="1" stop-color="#70FFF6"/>
</linearGradient>
<linearGradient id="paint13_linear_97_280" x1="1440" y1="161.707" x2="12.4999" y2="161.707" gradientUnits="userSpaceOnUse">
<stop offset="0.0104167" stop-color="#002F2C"/>
<stop offset="0.375" stop-color="#00857D"/>
<stop offset="0.645833" stop-color="#00C7BB"/>
<stop offset="0.817708" stop-color="#00FFF0"/>
<stop offset="1" stop-color="#70FFF6"/>
</linearGradient>
<linearGradient id="paint14_linear_97_280" x1="1440" y1="161.707" x2="12.4999" y2="161.707" gradientUnits="userSpaceOnUse">
<stop offset="0.0104167" stop-color="#002F2C"/>
<stop offset="0.375" stop-color="#00857D"/>
<stop offset="0.645833" stop-color="#00C7BB"/>
<stop offset="0.817708" stop-color="#00FFF0"/>
<stop offset="1" stop-color="#70FFF6"/>
</linearGradient>
<linearGradient id="paint15_linear_97_280" x1="1440" y1="161.707" x2="12.4999" y2="161.707" gradientUnits="userSpaceOnUse">
<stop offset="0.0104167" stop-color="#002F2C"/>
<stop offset="0.375" stop-color="#00857D"/>
<stop offset="0.645833" stop-color="#00C7BB"/>
<stop offset="0.817708" stop-color="#00FFF0"/>
<stop offset="1" stop-color="#70FFF6"/>
</linearGradient>
<linearGradient id="paint16_linear_97_280" x1="1440" y1="161.707" x2="12.4999" y2="161.707" gradientUnits="userSpaceOnUse">
<stop offset="0.0104167" stop-color="#002F2C"/>
<stop offset="0.375" stop-color="#00857D"/>
<stop offset="0.645833" stop-color="#00C7BB"/>
<stop offset="0.817708" stop-color="#00FFF0"/>
<stop offset="1" stop-color="#70FFF6"/>
</linearGradient>
<linearGradient id="paint17_linear_97_280" x1="1440" y1="161.707" x2="12.4999" y2="161.707" gradientUnits="userSpaceOnUse">
<stop offset="0.0104167" stop-color="#002F2C"/>
<stop offset="0.375" stop-color="#00857D"/>
<stop offset="0.645833" stop-color="#00C7BB"/>
<stop offset="0.817708" stop-color="#00FFF0"/>
<stop offset="1" stop-color="#70FFF6"/>
</linearGradient>
<linearGradient id="paint18_linear_97_280" x1="1440" y1="161.707" x2="12.4999" y2="161.707" gradientUnits="userSpaceOnUse">
<stop offset="0.0104167" stop-color="#002F2C"/>
<stop offset="0.375" stop-color="#00857D"/>
<stop offset="0.645833" stop-color="#00C7BB"/>
<stop offset="0.817708" stop-color="#00FFF0"/>
<stop offset="1" stop-color="#70FFF6"/>
</linearGradient>
<linearGradient id="paint19_linear_97_280" x1="1440" y1="161.707" x2="12.4999" y2="161.707" gradientUnits="userSpaceOnUse">
<stop offset="0.0104167" stop-color="#002F2C"/>
<stop offset="0.375" stop-color="#00857D"/>
<stop offset="0.645833" stop-color="#00C7BB"/>
<stop offset="0.817708" stop-color="#00FFF0"/>
<stop offset="1" stop-color="#70FFF6"/>
</linearGradient>
<linearGradient id="paint20_linear_97_280" x1="1440" y1="161.707" x2="12.4999" y2="161.707" gradientUnits="userSpaceOnUse">
<stop offset="0.0104167" stop-color="#002F2C"/>
<stop offset="0.375" stop-color="#00857D"/>
<stop offset="0.645833" stop-color="#00C7BB"/>
<stop offset="0.817708" stop-color="#00FFF0"/>
<stop offset="1" stop-color="#70FFF6"/>
</linearGradient>
<linearGradient id="paint21_linear_97_280" x1="1440" y1="161.707" x2="12.4999" y2="161.707" gradientUnits="userSpaceOnUse">
<stop offset="0.0104167" stop-color="#002F2C"/>
<stop offset="0.375" stop-color="#00857D"/>
<stop offset="0.645833" stop-color="#00C7BB"/>
<stop offset="0.817708" stop-color="#00FFF0"/>
<stop offset="1" stop-color="#70FFF6"/>
</linearGradient>
<linearGradient id="paint22_linear_97_280" x1="1440" y1="161.707" x2="12.4999" y2="161.707" gradientUnits="userSpaceOnUse">
<stop offset="0.0104167" stop-color="#002F2C"/>
<stop offset="0.375" stop-color="#00857D"/>
<stop offset="0.645833" stop-color="#00C7BB"/>
<stop offset="0.817708" stop-color="#00FFF0"/>
<stop offset="1" stop-color="#70FFF6"/>
</linearGradient>
<linearGradient id="paint23_linear_97_280" x1="1440" y1="161.707" x2="12.4999" y2="161.707" gradientUnits="userSpaceOnUse">
<stop offset="0.0104167" stop-color="#002F2C"/>
<stop offset="0.375" stop-color="#00857D"/>
<stop offset="0.645833" stop-color="#00C7BB"/>
<stop offset="0.817708" stop-color="#00FFF0"/>
<stop offset="1" stop-color="#70FFF6"/>
</linearGradient>
<linearGradient id="paint24_linear_97_280" x1="1440" y1="161.707" x2="12.4999" y2="161.707" gradientUnits="userSpaceOnUse">
<stop offset="0.0104167" stop-color="#002F2C"/>
<stop offset="0.375" stop-color="#00857D"/>
<stop offset="0.645833" stop-color="#00C7BB"/>
<stop offset="0.817708" stop-color="#00FFF0"/>
<stop offset="1" stop-color="#70FFF6"/>
</linearGradient>
<linearGradient id="paint25_linear_97_280" x1="1440" y1="161.707" x2="12.4999" y2="161.707" gradientUnits="userSpaceOnUse">
<stop offset="0.0104167" stop-color="#002F2C"/>
<stop offset="0.375" stop-color="#00857D"/>
<stop offset="0.645833" stop-color="#00C7BB"/>
<stop offset="0.817708" stop-color="#00FFF0"/>
<stop offset="1" stop-color="#70FFF6"/>
</linearGradient>
<linearGradient id="paint26_linear_97_280" x1="1440" y1="161.707" x2="12.4999" y2="161.707" gradientUnits="userSpaceOnUse">
<stop offset="0.0104167" stop-color="#002F2C"/>
<stop offset="0.375" stop-color="#00857D"/>
<stop offset="0.645833" stop-color="#00C7BB"/>
<stop offset="0.817708" stop-color="#00FFF0"/>
<stop offset="1" stop-color="#70FFF6"/>
</linearGradient>
<linearGradient id="paint27_linear_97_280" x1="1440" y1="161.707" x2="12.4999" y2="161.707" gradientUnits="userSpaceOnUse">
<stop offset="0.0104167" stop-color="#002F2C"/>
<stop offset="0.375" stop-color="#00857D"/>
<stop offset="0.645833" stop-color="#00C7BB"/>
<stop offset="0.817708" stop-color="#00FFF0"/>
<stop offset="1" stop-color="#70FFF6"/>
</linearGradient>
<linearGradient id="paint28_linear_97_280" x1="1440" y1="161.707" x2="12.4999" y2="161.707" gradientUnits="userSpaceOnUse">
<stop offset="0.0104167" stop-color="#002F2C"/>
<stop offset="0.375" stop-color="#00857D"/>
<stop offset="0.645833" stop-color="#00C7BB"/>
<stop offset="0.817708" stop-color="#00FFF0"/>
<stop offset="1" stop-color="#70FFF6"/>
</linearGradient>
<linearGradient id="paint29_linear_97_280" x1="1440" y1="161.707" x2="12.4999" y2="161.707" gradientUnits="userSpaceOnUse">
<stop offset="0.0104167" stop-color="#002F2C"/>
<stop offset="0.375" stop-color="#00857D"/>
<stop offset="0.645833" stop-color="#00C7BB"/>
<stop offset="0.817708" stop-color="#00FFF0"/>
<stop offset="1" stop-color="#70FFF6"/>
</linearGradient>
<linearGradient id="paint30_linear_97_280" x1="1440" y1="161.707" x2="12.4999" y2="161.707" gradientUnits="userSpaceOnUse">
<stop offset="0.0104167" stop-color="#002F2C"/>
<stop offset="0.375" stop-color="#00857D"/>
<stop offset="0.645833" stop-color="#00C7BB"/>
<stop offset="0.817708" stop-color="#00FFF0"/>
<stop offset="1" stop-color="#70FFF6"/>
</linearGradient>
<linearGradient id="paint31_linear_97_280" x1="1440" y1="161.707" x2="12.4999" y2="161.707" gradientUnits="userSpaceOnUse">
<stop offset="0.0104167" stop-color="#002F2C"/>
<stop offset="0.375" stop-color="#00857D"/>
<stop offset="0.645833" stop-color="#00C7BB"/>
<stop offset="0.817708" stop-color="#00FFF0"/>
<stop offset="1" stop-color="#70FFF6"/>
</linearGradient>
<linearGradient id="paint32_linear_97_280" x1="1440" y1="161.707" x2="12.4999" y2="161.707" gradientUnits="userSpaceOnUse">
<stop offset="0.0104167" stop-color="#002F2C"/>
<stop offset="0.375" stop-color="#00857D"/>
<stop offset="0.645833" stop-color="#00C7BB"/>
<stop offset="0.817708" stop-color="#00FFF0"/>
<stop offset="1" stop-color="#70FFF6"/>
</linearGradient>
<linearGradient id="paint33_linear_97_280" x1="1440" y1="161.707" x2="12.4999" y2="161.707" gradientUnits="userSpaceOnUse">
<stop offset="0.0104167" stop-color="#002F2C"/>
<stop offset="0.375" stop-color="#00857D"/>
<stop offset="0.645833" stop-color="#00C7BB"/>
<stop offset="0.817708" stop-color="#00FFF0"/>
<stop offset="1" stop-color="#70FFF6"/>
</linearGradient>
<linearGradient id="paint34_linear_97_280" x1="1440" y1="161.707" x2="12.4999" y2="161.707" gradientUnits="userSpaceOnUse">
<stop offset="0.0104167" stop-color="#002F2C"/>
<stop offset="0.375" stop-color="#00857D"/>
<stop offset="0.645833" stop-color="#00C7BB"/>
<stop offset="0.817708" stop-color="#00FFF0"/>
<stop offset="1" stop-color="#70FFF6"/>
</linearGradient>
<linearGradient id="paint35_linear_97_280" x1="1440" y1="161.707" x2="12.4999" y2="161.707" gradientUnits="userSpaceOnUse">
<stop offset="0.0104167" stop-color="#002F2C"/>
<stop offset="0.375" stop-color="#00857D"/>
<stop offset="0.645833" stop-color="#00C7BB"/>
<stop offset="0.817708" stop-color="#00FFF0"/>
<stop offset="1" stop-color="#70FFF6"/>
</linearGradient>
<linearGradient id="paint36_linear_97_280" x1="1440" y1="161.707" x2="12.4999" y2="161.707" gradientUnits="userSpaceOnUse">
<stop offset="0.0104167" stop-color="#002F2C"/>
<stop offset="0.375" stop-color="#00857D"/>
<stop offset="0.645833" stop-color="#00C7BB"/>
<stop offset="0.817708" stop-color="#00FFF0"/>
<stop offset="1" stop-color="#70FFF6"/>
</linearGradient>
<linearGradient id="paint37_linear_97_280" x1="1440" y1="161.707" x2="12.4999" y2="161.707" gradientUnits="userSpaceOnUse">
<stop offset="0.0104167" stop-color="#002F2C"/>
<stop offset="0.375" stop-color="#00857D"/>
<stop offset="0.645833" stop-color="#00C7BB"/>
<stop offset="0.817708" stop-color="#00FFF0"/>
<stop offset="1" stop-color="#70FFF6"/>
</linearGradient>
<linearGradient id="paint38_linear_97_280" x1="1440" y1="161.707" x2="12.4999" y2="161.707" gradientUnits="userSpaceOnUse">
<stop offset="0.0104167" stop-color="#002F2C"/>
<stop offset="0.375" stop-color="#00857D"/>
<stop offset="0.645833" stop-color="#00C7BB"/>
<stop offset="0.817708" stop-color="#00FFF0"/>
<stop offset="1" stop-color="#70FFF6"/>
</linearGradient>
<linearGradient id="paint39_linear_97_280" x1="1440" y1="161.707" x2="12.4999" y2="161.707" gradientUnits="userSpaceOnUse">
<stop offset="0.0104167" stop-color="#002F2C"/>
<stop offset="0.375" stop-color="#00857D"/>
<stop offset="0.645833" stop-color="#00C7BB"/>
<stop offset="0.817708" stop-color="#00FFF0"/>
<stop offset="1" stop-color="#70FFF6"/>
</linearGradient>
<linearGradient id="paint40_linear_97_280" x1="1440" y1="161.707" x2="12.4999" y2="161.707" gradientUnits="userSpaceOnUse">
<stop offset="0.0104167" stop-color="#002F2C"/>
<stop offset="0.375" stop-color="#00857D"/>
<stop offset="0.645833" stop-color="#00C7BB"/>
<stop offset="0.817708" stop-color="#00FFF0"/>
<stop offset="1" stop-color="#70FFF6"/>
</linearGradient>
<linearGradient id="paint41_linear_97_280" x1="1440" y1="161.707" x2="12.4999" y2="161.707" gradientUnits="userSpaceOnUse">
<stop offset="0.0104167" stop-color="#002F2C"/>
<stop offset="0.375" stop-color="#00857D"/>
<stop offset="0.645833" stop-color="#00C7BB"/>
<stop offset="0.817708" stop-color="#00FFF0"/>
<stop offset="1" stop-color="#70FFF6"/>
</linearGradient>
<linearGradient id="paint42_linear_97_280" x1="1440" y1="161.707" x2="12.4999" y2="161.707" gradientUnits="userSpaceOnUse">
<stop offset="0.0104167" stop-color="#002F2C"/>
<stop offset="0.375" stop-color="#00857D"/>
<stop offset="0.645833" stop-color="#00C7BB"/>
<stop offset="0.817708" stop-color="#00FFF0"/>
<stop offset="1" stop-color="#70FFF6"/>
</linearGradient>
<linearGradient id="paint43_linear_97_280" x1="1440" y1="161.707" x2="12.4999" y2="161.707" gradientUnits="userSpaceOnUse">
<stop offset="0.0104167" stop-color="#002F2C"/>
<stop offset="0.375" stop-color="#00857D"/>
<stop offset="0.645833" stop-color="#00C7BB"/>
<stop offset="0.817708" stop-color="#00FFF0"/>
<stop offset="1" stop-color="#70FFF6"/>
</linearGradient>
<linearGradient id="paint44_linear_97_280" x1="1440" y1="161.707" x2="12.4999" y2="161.707" gradientUnits="userSpaceOnUse">
<stop offset="0.0104167" stop-color="#002F2C"/>
<stop offset="0.375" stop-color="#00857D"/>
<stop offset="0.645833" stop-color="#00C7BB"/>
<stop offset="0.817708" stop-color="#00FFF0"/>
<stop offset="1" stop-color="#70FFF6"/>
</linearGradient>
<linearGradient id="paint45_linear_97_280" x1="1440" y1="161.707" x2="12.4999" y2="161.707" gradientUnits="userSpaceOnUse">
<stop offset="0.0104167" stop-color="#002F2C"/>
<stop offset="0.375" stop-color="#00857D"/>
<stop offset="0.645833" stop-color="#00C7BB"/>
<stop offset="0.817708" stop-color="#00FFF0"/>
<stop offset="1" stop-color="#70FFF6"/>
</linearGradient>
<linearGradient id="paint46_linear_97_280" x1="1440" y1="161.707" x2="12.4999" y2="161.707" gradientUnits="userSpaceOnUse">
<stop offset="0.0104167" stop-color="#002F2C"/>
<stop offset="0.375" stop-color="#00857D"/>
<stop offset="0.645833" stop-color="#00C7BB"/>
<stop offset="0.817708" stop-color="#00FFF0"/>
<stop offset="1" stop-color="#70FFF6"/>
</linearGradient>
<linearGradient id="paint47_linear_97_280" x1="1440" y1="161.707" x2="12.4999" y2="161.707" gradientUnits="userSpaceOnUse">
<stop offset="0.0104167" stop-color="#002F2C"/>
<stop offset="0.375" stop-color="#00857D"/>
<stop offset="0.645833" stop-color="#00C7BB"/>
<stop offset="0.817708" stop-color="#00FFF0"/>
<stop offset="1" stop-color="#70FFF6"/>
</linearGradient>
<linearGradient id="paint48_linear_97_280" x1="1440" y1="161.707" x2="12.4999" y2="161.707" gradientUnits="userSpaceOnUse">
<stop offset="0.0104167" stop-color="#002F2C"/>
<stop offset="0.375" stop-color="#00857D"/>
<stop offset="0.645833" stop-color="#00C7BB"/>
<stop offset="0.817708" stop-color="#00FFF0"/>
<stop offset="1" stop-color="#70FFF6"/>
</linearGradient>
<linearGradient id="paint49_linear_97_280" x1="1440" y1="161.707" x2="12.4999" y2="161.707" gradientUnits="userSpaceOnUse">
<stop offset="0.0104167" stop-color="#002F2C"/>
<stop offset="0.375" stop-color="#00857D"/>
<stop offset="0.645833" stop-color="#00C7BB"/>
<stop offset="0.817708" stop-color="#00FFF0"/>
<stop offset="1" stop-color="#70FFF6"/>
</linearGradient>
<linearGradient id="paint50_linear_97_280" x1="1440" y1="161.707" x2="12.4999" y2="161.707" gradientUnits="userSpaceOnUse">
<stop offset="0.0104167" stop-color="#002F2C"/>
<stop offset="0.375" stop-color="#00857D"/>
<stop offset="0.645833" stop-color="#00C7BB"/>
<stop offset="0.817708" stop-color="#00FFF0"/>
<stop offset="1" stop-color="#70FFF6"/>
</linearGradient>
<linearGradient id="paint51_linear_97_280" x1="1440" y1="161.707" x2="12.4999" y2="161.707" gradientUnits="userSpaceOnUse">
<stop offset="0.0104167" stop-color="#002F2C"/>
<stop offset="0.375" stop-color="#00857D"/>
<stop offset="0.645833" stop-color="#00C7BB"/>
<stop offset="0.817708" stop-color="#00FFF0"/>
<stop offset="1" stop-color="#70FFF6"/>
</linearGradient>
<linearGradient id="paint52_linear_97_280" x1="1440" y1="161.707" x2="12.4999" y2="161.707" gradientUnits="userSpaceOnUse">
<stop offset="0.0104167" stop-color="#002F2C"/>
<stop offset="0.375" stop-color="#00857D"/>
<stop offset="0.645833" stop-color="#00C7BB"/>
<stop offset="0.817708" stop-color="#00FFF0"/>
<stop offset="1" stop-color="#70FFF6"/>
</linearGradient>
<linearGradient id="paint53_linear_97_280" x1="1440" y1="161.707" x2="12.4999" y2="161.707" gradientUnits="userSpaceOnUse">
<stop offset="0.0104167" stop-color="#002F2C"/>
<stop offset="0.375" stop-color="#00857D"/>
<stop offset="0.645833" stop-color="#00C7BB"/>
<stop offset="0.817708" stop-color="#00FFF0"/>
<stop offset="1" stop-color="#70FFF6"/>
</linearGradient>
<linearGradient id="paint54_linear_97_280" x1="1440" y1="161.707" x2="12.4999" y2="161.707" gradientUnits="userSpaceOnUse">
<stop offset="0.0104167" stop-color="#002F2C"/>
<stop offset="0.375" stop-color="#00857D"/>
<stop offset="0.645833" stop-color="#00C7BB"/>
<stop offset="0.817708" stop-color="#00FFF0"/>
<stop offset="1" stop-color="#70FFF6"/>
</linearGradient>
<linearGradient id="paint55_linear_97_280" x1="1440" y1="161.707" x2="12.4999" y2="161.707" gradientUnits="userSpaceOnUse">
<stop offset="0.0104167" stop-color="#002F2C"/>
<stop offset="0.375" stop-color="#00857D"/>
<stop offset="0.645833" stop-color="#00C7BB"/>
<stop offset="0.817708" stop-color="#00FFF0"/>
<stop offset="1" stop-color="#70FFF6"/>
</linearGradient>
<linearGradient id="paint56_linear_97_280" x1="1440" y1="161.707" x2="12.4999" y2="161.707" gradientUnits="userSpaceOnUse">
<stop offset="0.0104167" stop-color="#002F2C"/>
<stop offset="0.375" stop-color="#00857D"/>
<stop offset="0.645833" stop-color="#00C7BB"/>
<stop offset="0.817708" stop-color="#00FFF0"/>
<stop offset="1" stop-color="#70FFF6"/>
</linearGradient>
<linearGradient id="paint57_linear_97_280" x1="1440" y1="161.707" x2="12.4999" y2="161.707" gradientUnits="userSpaceOnUse">
<stop offset="0.0104167" stop-color="#002F2C"/>
<stop offset="0.375" stop-color="#00857D"/>
<stop offset="0.645833" stop-color="#00C7BB"/>
<stop offset="0.817708" stop-color="#00FFF0"/>
<stop offset="1" stop-color="#70FFF6"/>
</linearGradient>
<linearGradient id="paint58_linear_97_280" x1="1440" y1="161.707" x2="12.4999" y2="161.707" gradientUnits="userSpaceOnUse">
<stop offset="0.0104167" stop-color="#002F2C"/>
<stop offset="0.375" stop-color="#00857D"/>
<stop offset="0.645833" stop-color="#00C7BB"/>
<stop offset="0.817708" stop-color="#00FFF0"/>
<stop offset="1" stop-color="#70FFF6"/>
</linearGradient>
<linearGradient id="paint59_linear_97_280" x1="1440" y1="161.707" x2="12.4999" y2="161.707" gradientUnits="userSpaceOnUse">
<stop offset="0.0104167" stop-color="#002F2C"/>
<stop offset="0.375" stop-color="#00857D"/>
<stop offset="0.645833" stop-color="#00C7BB"/>
<stop offset="0.817708" stop-color="#00FFF0"/>
<stop offset="1" stop-color="#70FFF6"/>
</linearGradient>
<linearGradient id="paint60_linear_97_280" x1="1440" y1="161.707" x2="12.4999" y2="161.707" gradientUnits="userSpaceOnUse">
<stop offset="0.0104167" stop-color="#002F2C"/>
<stop offset="0.375" stop-color="#00857D"/>
<stop offset="0.645833" stop-color="#00C7BB"/>
<stop offset="0.817708" stop-color="#00FFF0"/>
<stop offset="1" stop-color="#70FFF6"/>
</linearGradient>
<linearGradient id="paint61_linear_97_280" x1="1440" y1="161.707" x2="12.4999" y2="161.707" gradientUnits="userSpaceOnUse">
<stop offset="0.0104167" stop-color="#002F2C"/>
<stop offset="0.375" stop-color="#00857D"/>
<stop offset="0.645833" stop-color="#00C7BB"/>
<stop offset="0.817708" stop-color="#00FFF0"/>
<stop offset="1" stop-color="#70FFF6"/>
</linearGradient>
</defs>
</svg>
