<svg width="32" height="32" viewBox="0 0 32 32" fill="none" xmlns="http://www.w3.org/2000/svg">
<path d="M15.9998 0.166748C13.9206 0.166748 11.8617 0.576289 9.94068 1.37199C8.01969 2.16769 6.27424 3.33396 4.80398 4.80422C1.83465 7.77355 0.166504 11.8008 0.166504 16.0001C0.166504 22.9984 4.71067 28.9359 10.9965 31.0417C11.7882 31.1684 12.0415 30.6776 12.0415 30.2501C12.0415 29.8859 12.0415 28.8884 12.0415 27.5742C7.65567 28.5242 6.7215 25.4526 6.7215 25.4526C5.99317 23.6159 4.964 23.1251 4.964 23.1251C3.52317 22.1434 5.07484 22.1751 5.07484 22.1751C6.65817 22.2859 7.49734 23.8059 7.49734 23.8059C8.87484 26.2126 11.2023 25.5001 12.1048 25.1201C12.2473 24.0909 12.659 23.3942 13.1023 22.9984C9.58734 22.6026 5.89817 21.2409 5.89817 15.2084C5.89817 13.4509 6.49984 12.0417 7.529 10.9176C7.37067 10.5217 6.8165 8.87508 7.68734 6.73758C7.68734 6.73758 9.01734 6.31008 12.0415 8.35258C13.2923 8.00425 14.654 7.83008 15.9998 7.83008C17.3457 7.83008 18.7073 8.00425 19.9582 8.35258C22.9823 6.31008 24.3123 6.73758 24.3123 6.73758C25.1832 8.87508 24.629 10.5217 24.4707 10.9176C25.4998 12.0417 26.1015 13.4509 26.1015 15.2084C26.1015 21.2567 22.3965 22.5867 18.8657 22.9826C19.4357 23.4734 19.9582 24.4392 19.9582 25.9117C19.9582 28.0334 19.9582 29.7434 19.9582 30.2501C19.9582 30.6776 20.2115 31.1842 21.019 31.0417C27.3048 28.9201 31.8332 22.9984 31.8332 16.0001C31.8332 13.9208 31.4236 11.8619 30.6279 9.94093C29.8322 8.01994 28.666 6.27448 27.1957 4.80422C25.7254 3.33396 23.98 2.16769 22.059 1.37199C20.138 0.576289 18.0791 0.166748 15.9998 0.166748Z" fill="#8E8E8E"/>
</svg>
